<?xml version="1.0" standalone="no"?>
<!DOCTYPE svg PUBLIC "-//W3C//DTD SVG 20010904//EN"
 "http://www.w3.org/TR/2001/REC-SVG-20010904/DTD/svg10.dtd">
<svg version="1.0" xmlns="http://www.w3.org/2000/svg"
 width="2376.000000pt" height="1960.000000pt" viewBox="0 0 2376.000000 1960.000000"
 preserveAspectRatio="xMidYMid meet">

<g transform="translate(0.000000,1960.000000) scale(0.100000,-0.100000)"
fill="#000000" stroke="none">
<path d="M13362 18110 c-98 -26 -228 -91 -326 -164 -197 -145 -365 -364 -573
-744 l-40 -74 -53 89 c-130 217 -374 494 -551 627 -256 190 -518 270 -728 221
-96 -23 -177 -70 -256 -150 -263 -263 -285 -820 -53 -1315 95 -203 231 -392
422 -589 221 -226 423 -387 986 -784 162 -115 307 -218 322 -229 l27 -21 178
169 c292 277 593 581 709 715 596 686 821 1281 683 1799 -64 242 -208 402
-409 455 -79 21 -248 18 -338 -5z"/>
<path d="M14785 15400 c-409 -47 -973 -574 -1457 -1361 -52 -85 -106 -176
-120 -204 -13 -27 -63 -124 -110 -215 -47 -91 -97 -192 -111 -225 -44 -105
-153 -385 -203 -522 -27 -73 -51 -133 -54 -133 -3 0 -15 15 -27 33 -12 17 -54
77 -93 132 -39 55 -92 132 -117 170 -25 39 -75 114 -110 167 -35 53 -69 103
-76 110 -7 7 -39 54 -71 103 -84 128 -201 303 -235 350 -16 22 -97 143 -181
269 -254 383 -384 557 -503 678 -172 174 -396 283 -633 307 -103 11 -267 0
-358 -24 -281 -74 -518 -263 -654 -522 -185 -355 -190 -724 -14 -1083 54 -110
248 -408 660 -1010 88 -129 197 -289 242 -355 91 -133 341 -501 535 -785 69
-102 198 -291 286 -420 188 -274 263 -394 251 -398 -5 -1 -44 13 -87 33 -417
190 -824 161 -1150 -82 -142 -106 -222 -206 -312 -393 -127 -261 -145 -460
-78 -839 8 -47 13 -87 10 -89 -2 -2 -31 13 -65 34 -146 93 -172 107 -266 145
-256 104 -527 117 -726 33 -117 -49 -194 -108 -333 -257 -34 -37 -111 -172
-133 -233 -78 -218 -95 -318 -95 -554 1 -337 61 -600 222 -975 32 -77 59 -141
58 -142 -1 -1 -72 33 -157 74 -304 148 -399 177 -585 176 -101 0 -133 -4 -201
-27 -313 -101 -506 -433 -553 -952 -13 -137 -5 -531 13 -699 35 -310 86 -572
141 -721 112 -300 476 -927 913 -1574 47 -69 117 -172 155 -230 74 -110 187
-270 300 -427 37 -51 67 -95 67 -97 0 -7 134 -195 224 -314 40 -53 109 -149
154 -212 158 -224 479 -661 493 -670 11 -8 189 0 189 9 0 4 -8 16 -18 27 -10
10 -47 60 -82 109 -35 50 -148 203 -250 340 -102 138 -202 275 -222 305 -21
30 -60 84 -88 120 -28 36 -77 104 -110 152 -32 48 -91 133 -132 189 -177 244
-673 978 -838 1239 -311 491 -516 863 -608 1105 -80 212 -152 707 -152 1052 0
533 122 903 348 1053 126 83 298 92 497 25 322 -109 564 -259 730 -454 40 -47
174 -207 297 -356 181 -218 534 -639 642 -765 11 -14 70 -84 130 -155 161
-192 205 -235 239 -235 32 0 77 39 77 67 0 34 -30 75 -287 385 -453 550 -588
709 -803 948 -153 170 -242 298 -338 488 -124 242 -226 551 -288 867 -29 144
-25 405 8 565 47 226 123 378 247 493 176 162 416 205 670 120 105 -35 395
-177 456 -222 28 -20 68 -50 90 -66 74 -53 167 -149 214 -220 26 -38 180 -254
342 -480 162 -225 353 -491 424 -590 71 -99 221 -308 334 -465 112 -157 241
-337 286 -400 95 -133 100 -138 147 -145 32 -5 36 -4 41 21 2 15 1 39 -3 55
-5 15 -79 126 -166 246 -206 285 -303 420 -460 638 -605 837 -923 1293 -981
1409 -99 197 -140 385 -130 591 16 305 113 527 315 716 301 282 728 313 1159
85 194 -104 330 -236 504 -491 64 -93 167 -245 230 -338 212 -312 730 -1068
1003 -1465 71 -103 173 -253 227 -333 63 -93 107 -149 121 -152 29 -8 76 19
84 47 7 30 3 38 -109 199 -51 73 -104 150 -119 172 -14 22 -76 112 -137 200
-60 88 -155 225 -209 305 -55 80 -173 252 -263 382 -194 280 -725 1055 -924
1347 -77 113 -188 276 -246 361 -58 85 -226 333 -374 550 -147 217 -306 450
-352 518 -152 223 -248 365 -399 587 -81 121 -199 294 -261 385 -402 593 -567
845 -603 923 -65 138 -91 257 -91 409 1 474 283 865 706 979 107 29 327 32
425 6 213 -58 370 -156 506 -315 59 -69 306 -427 694 -1006 198 -294 321 -474
376 -552 24 -34 44 -65 44 -68 0 -8 359 -541 425 -631 24 -33 44 -63 44 -68 1
-7 92 -144 456 -682 78 -115 272 -403 432 -640 160 -236 345 -511 413 -610 67
-99 164 -243 216 -320 313 -463 464 -676 473 -671 4 3 7 -3 7 -12 0 -9 67
-114 149 -232 174 -252 279 -412 325 -495 18 -33 41 -71 50 -85 82 -118 349
-632 455 -875 370 -848 585 -1736 585 -2419 0 -357 -46 -548 -210 -876 -206
-411 -308 -725 -414 -1275 -62 -322 -99 -611 -111 -865 -5 -122 -16 -275 -20
-300 -3 -18 -19 -358 -20 -418 l0 -44 75 -1 75 -2 7 115 c34 580 68 986 103
1235 9 61 20 143 25 182 17 131 116 524 185 736 57 178 133 360 226 546 101
202 119 247 154 371 74 262 94 463 75 755 -33 534 -145 1089 -334 1659 -238
717 -553 1355 -885 1794 -72 97 -144 200 -164 238 -9 16 -26 41 -39 56 -13 15
-48 63 -78 108 -30 44 -80 116 -111 158 -167 232 -287 414 -304 461 -11 31
-14 325 -16 1602 -3 1782 -13 1586 96 1864 37 94 140 361 230 595 90 234 196
507 234 607 83 215 97 284 81 404 -20 144 -107 318 -191 378 -82 60 -193 85
-314 71z m200 -158 c62 -34 114 -101 146 -190 20 -55 24 -85 23 -167 0 -116
-1 -118 -183 -590 -62 -159 -136 -353 -166 -430 -29 -77 -93 -241 -142 -365
-167 -421 -153 -247 -153 -1943 0 -1347 -1 -1418 -17 -1415 -18 3 -52 51 -411
583 -672 997 -912 1350 -1133 1674 -82 120 -99 155 -99 210 0 34 112 396 148
481 131 306 242 547 291 630 200 341 266 443 422 650 378 501 768 834 1041
889 29 6 62 13 73 15 39 9 111 -6 160 -32z"/>
</g>
</svg>
