<svg width="44" height="43" viewBox="0 0 44 43" fill="none" xmlns="http://www.w3.org/2000/svg">
<g clip-path="url(#clip0_82_347)">
<path d="M22 41.4643C33.2824 41.4643 42.4286 32.526 42.4286 21.5C42.4286 10.474 33.2824 1.53571 22 1.53571C10.7176 1.53571 1.57141 10.474 1.57141 21.5C1.57141 32.526 10.7176 41.4643 22 41.4643Z" fill="#6750A4"/>
<path d="M22 41.4643C33.2824 41.4643 42.4286 32.526 42.4286 21.5C42.4286 10.474 33.2824 1.53571 22 1.53571C10.7176 1.53571 1.57141 10.474 1.57141 21.5C1.57141 32.526 10.7176 41.4643 22 41.4643Z" stroke="#000001" stroke-width="2" stroke-linecap="round" stroke-linejoin="round"/>
<path d="M22 41.4643C33.2824 41.4643 42.4286 32.526 42.4286 21.5C42.4286 10.474 33.2824 1.53571 22 1.53571C10.7176 1.53571 1.57141 10.474 1.57141 21.5C1.57141 32.526 10.7176 41.4643 22 41.4643Z" stroke="black" stroke-opacity="0.2" stroke-width="2" stroke-linecap="round" stroke-linejoin="round"/>
<path d="M39.5 11C36.2096 5.79215 29.3471 1.56599 22 2L21.5 21.5C23.7677 23.6134 27.7361 26.9393 37.5 35L42.5 25L42 18.5L39.5 11Z" fill="white" stroke="black"/>
<path d="M22 1.53571V21.5L36.4571 35.6286" stroke="#000001" stroke-width="2" stroke-linecap="round" stroke-linejoin="round"/>
<path d="M22 41.4643C33.2824 41.4643 42.4286 32.526 42.4286 21.5C42.4286 10.474 33.2824 1.53571 22 1.53571C10.7176 1.53571 1.57141 10.474 1.57141 21.5C1.57141 32.526 10.7176 41.4643 22 41.4643Z" stroke="#000001" stroke-width="2" stroke-linecap="round" stroke-linejoin="round"/>
<path d="M22 41.4643C33.2824 41.4643 42.4286 32.526 42.4286 21.5C42.4286 10.474 33.2824 1.53571 22 1.53571C10.7176 1.53571 1.57141 10.474 1.57141 21.5C1.57141 32.526 10.7176 41.4643 22 41.4643Z" stroke="black" stroke-opacity="0.2" stroke-width="2" stroke-linecap="round" stroke-linejoin="round"/>
</g>
<defs>
<clipPath id="clip0_82_347">
<rect width="44" height="43" fill="white"/>
</clipPath>
</defs>
</svg>
