<?xml version="1.0" standalone="no"?>
<!DOCTYPE svg PUBLIC "-//W3C//DTD SVG 20010904//EN"
 "http://www.w3.org/TR/2001/REC-SVG-20010904/DTD/svg10.dtd">
<svg version="1.0" xmlns="http://www.w3.org/2000/svg"
 width="225.000000pt" height="225.000000pt" viewBox="0 0 225.000000 225.000000"
 preserveAspectRatio="xMidYMid meet">

<g transform="translate(0.000000,225.000000) scale(0.100000,-0.100000)"
fill="#000000" stroke="none">
<path d="M759 1803 c-44 -74 -89 -123 -113 -123 -13 0 -29 -7 -36 -15 -30 -36
-62 -124 -66 -180 -9 -115 -12 -121 -96 -222 -134 -163 -247 -275 -271 -271
-18 2 -22 11 -25 50 l-3 46 -32 -8 c-18 -5 -51 -14 -74 -20 l-43 -11 0 -319 0
-320 138 0 137 0 -29 23 c-61 49 -25 152 104 304 51 59 79 84 107 93 21 7 85
36 143 65 160 79 158 79 278 72 120 -6 212 -31 220 -59 6 -25 13 -23 93 18
l70 37 107 -5 c83 -4 118 -10 157 -27 28 -13 110 -47 184 -77 145 -59 182 -82
279 -177 107 -103 139 -159 112 -192 -11 -13 -2 -15 69 -15 l81 0 0 345 c0
190 -3 345 -6 345 -3 0 -20 -11 -37 -24 -56 -43 -148 -86 -182 -86 -51 0 -111
53 -190 167 -38 56 -80 112 -92 125 -21 22 -23 34 -23 146 l0 122 -32 35 c-51
53 -238 123 -238 88 0 -2 7 -17 15 -33 15 -29 23 -33 83 -45 21 -4 32 -12 32
-24 0 -10 9 -26 20 -36 19 -17 27 -45 13 -45 -4 0 -25 21 -47 46 l-41 46 -95
5 c-86 5 -100 3 -140 -17 -81 -41 -101 -59 -90 -80 20 -37 43 -41 93 -15 43
24 47 24 95 10 46 -14 50 -18 60 -58 9 -34 8 -45 -3 -56 -13 -13 -23 -12 -79
8 l-65 23 -70 -32 c-58 -27 -72 -38 -86 -71 -20 -44 -35 -51 -35 -15 0 26 -95
126 -121 126 -8 0 -49 -11 -89 -25 -102 -35 -103 -34 -95 23 11 76 11 76 115
162 95 79 100 84 100 121 0 22 -5 39 -11 39 -6 0 -46 -27 -89 -59 -43 -33 -91
-67 -107 -76 -15 -9 -43 -39 -61 -67 -18 -27 -35 -48 -38 -46 -6 6 28 100 66
182 31 67 36 106 14 113 -7 2 -22 -13 -35 -34z m234 -454 c34 -18 68 -52 78
-78 8 -21 14 -23 46 -18 23 4 50 20 74 43 28 27 48 37 81 41 39 4 49 0 116
-46 65 -46 72 -55 71 -84 -3 -90 -29 -111 -168 -136 -92 -17 -107 -22 -139
-54 l-37 -36 -18 25 c-27 36 -89 63 -159 71 -35 3 -73 10 -86 14 -28 11 -52
65 -52 117 0 46 28 79 105 123 57 33 58 33 88 18z"/>
</g>
</svg>
